<svg xmlns="http://www.w3.org/2000/svg" viewBox="0 0 41 40"><defs><style>.cls-1{fill:none;}.cls-1,.cls-2{stroke:#000;stroke-miterlimit:10;}</style></defs><title>Asset 1</title><g id="Layer_2" data-name="Layer 2"><g id="Layer_1-2" data-name="Layer 1"><path class="cls-1" d="M10.82.5H30.18A10.32,10.32,0,0,1,40.5,10.82v6.05a1.62,1.62,0,0,1-1.62,1.62H2.12A1.62,1.62,0,0,1,.5,16.88V10.82A10.32,10.32,0,0,1,10.82.5Z"/><circle class="cls-2" cx="10" cy="11" r="1.5"/><circle class="cls-2" cx="16" cy="7" r="1.5"/><circle class="cls-2" cx="21" cy="11" r="1.5"/><circle class="cls-2" cx="31" cy="11" r="1.5"/><circle class="cls-2" cx="25" cy="7" r="1.5"/><path class="cls-1" d="M1.5,22.54,5,24.9a1.88,1.88,0,0,0,.45.22,3.36,3.36,0,0,0,1.91,0A1.66,1.66,0,0,0,8,24.81l2-1.67a3.31,3.31,0,0,1,2.95.23l1.66,1a3.34,3.34,0,0,0,3.72-.2l.2-.16a3.33,3.33,0,0,1,4,0h0a3.35,3.35,0,0,0,4,0l.35-.27a3.34,3.34,0,0,1,3.49-.32l2.53,1.26a3.37,3.37,0,0,0,3.2-.13l3.43-2.07"/><path class="cls-1" d="M1.23,29.5H39.77a.73.73,0,0,1,.73.73v1.63a7.64,7.64,0,0,1-7.64,7.64H8.14A7.64,7.64,0,0,1,.5,31.86V30.23A.73.73,0,0,1,1.23,29.5Z"/></g></g></svg>